<svg id="bin" xmlns="http://www.w3.org/2000/svg" width="32.589" height="40.126" viewBox="0 0 32.589 40.126">
  <path id="Path_221" data-name="Path 221" d="M223.338,154.7a.94.94,0,0,0-.94.94V173.4a.94.94,0,0,0,1.879,0v-17.76A.94.94,0,0,0,223.338,154.7Zm0,0" transform="translate(-201.499 -140.165)" fill="#3548bf"/>
  <path id="Path_222" data-name="Path 222" d="M105.338,154.7a.94.94,0,0,0-.94.94V173.4a.94.94,0,0,0,1.879,0v-17.76A.94.94,0,0,0,105.338,154.7Zm0,0" transform="translate(-94.587 -140.165)" fill="#3548bf"/>
  <path id="Path_223" data-name="Path 223" d="M2.666,11.944V35.1a5.185,5.185,0,0,0,1.378,3.576A4.628,4.628,0,0,0,7.4,40.124h17.78a4.626,4.626,0,0,0,3.358-1.452A5.185,5.185,0,0,0,29.917,35.1V11.944A3.59,3.59,0,0,0,29,4.885H24.185V3.71A3.691,3.691,0,0,0,20.464,0H12.119A3.691,3.691,0,0,0,8.4,3.71V4.885H3.587a3.59,3.59,0,0,0-.921,7.059Zm22.516,26.3H7.4A2.976,2.976,0,0,1,4.545,35.1V12.027H28.038V35.1a2.976,2.976,0,0,1-2.857,3.148ZM10.277,3.71a1.81,1.81,0,0,1,1.842-1.832h8.344A1.81,1.81,0,0,1,22.306,3.71V4.885H10.277ZM3.587,6.765H29a1.691,1.691,0,0,1,0,3.383H3.587a1.691,1.691,0,0,1,0-3.383Zm0,0" transform="translate(0.003 0.002)" fill="#3548bf"/>
  <path id="Path_224" data-name="Path 224" d="M164.338,154.7a.94.94,0,0,0-.94.94V173.4a.94.94,0,0,0,1.879,0v-17.76A.94.94,0,0,0,164.338,154.7Zm0,0" transform="translate(-148.043 -140.165)" fill="#3548bf"/>
</svg>
