<svg id="Group_407" data-name="Group 407" xmlns="http://www.w3.org/2000/svg" width="40.785" height="36.709" viewBox="0 0 40.785 36.709">
  <path id="Path_286" data-name="Path 286" d="M37.386,28.746v-1.36a.68.68,0,0,0-.68-.68H32.628a.68.68,0,0,0-.68.68v1.36H30.3l-1.74-3.041a3.4,3.4,0,0,0-2.95-1.717H15.172A3.4,3.4,0,0,0,12.223,25.7l-1.742,3.043H10.2V26.707a.68.68,0,0,0-.68-.68H4.079a.68.68,0,0,0-.68.68v2.039a3.4,3.4,0,0,0-3.4,3.4V51.178a3.4,3.4,0,0,0,3.4,3.4H22.386a9.513,9.513,0,0,0,18.4-3.4V32.145A3.4,3.4,0,0,0,37.386,28.746Zm-4.079-.68h2.719v.68H33.308Zm-28.55-.68H8.837v1.36H4.758ZM22.413,47.713c-.068.183-.141.367-.2.555-.042.133-.079.267-.116.4-.029.107-.068.211-.092.319a8.7,8.7,0,0,1-1.609.15A8.837,8.837,0,1,1,29.229,40.3a8.7,8.7,0,0,1-.15,1.614h0c-.109.026-.213.063-.322.092-.136.036-.264.072-.395.114-.192.061-.38.136-.567.2-.076.03-.156.052-.232.084A7.482,7.482,0,1,0,22.5,47.474C22.467,47.552,22.444,47.634,22.413,47.713Zm3.159-4.155c-.022.016-.041.037-.063.054A9.329,9.329,0,0,0,23.7,45.419c-.016.022-.037.04-.054.063a6.118,6.118,0,1,1,1.924-1.924Zm5.7,15.778a8.157,8.157,0,0,1-8.157-8.157,7.842,7.842,0,0,1,.136-1.5,8.028,8.028,0,0,1,1.427-3.3.509.509,0,0,0,.035-.054,8.088,8.088,0,0,1,.625-.728c.055-.058.1-.126.158-.184a8.017,8.017,0,0,1,.91-.784.485.485,0,0,0,.063-.041,8.039,8.039,0,0,1,3.31-1.427,7.849,7.849,0,0,1,1.492-.138,8.157,8.157,0,0,1,0,16.314Zm8.157-13.051c-.068-.114-.143-.223-.215-.333-.026-.043-.05-.084-.077-.122-.151-.221-.311-.433-.476-.64-.041-.05-.082-.1-.124-.147-.151-.178-.308-.351-.471-.518-.031-.031-.06-.065-.091-.1-.188-.187-.385-.364-.589-.536l-.154-.125c-.185-.149-.375-.292-.572-.428-.031-.022-.06-.045-.092-.068-.222-.149-.451-.287-.685-.417-.058-.033-.118-.064-.177-.1-.219-.116-.442-.224-.67-.323l-.077-.035c-.25-.105-.506-.2-.767-.281-.068-.021-.13-.041-.2-.06-.252-.075-.506-.143-.767-.2l-.048-.012c-.272-.056-.551-.1-.833-.128l-.209-.021c-.288-.023-.576-.041-.867-.041-.267,0-.528.015-.786.035a10.282,10.282,0,1,0-8.695,8.695c-.021.258-.036.519-.036.786,0,.309.02.616.05.921.008.087.02.173.03.26q.045.355.115.7c.01.051.014.1.025.154H3.4A2.039,2.039,0,0,1,1.36,51.178V32.145A2.039,2.039,0,0,1,3.4,30.106h7.477a.68.68,0,0,0,.59-.34L13.4,26.379a2.039,2.039,0,0,1,1.767-1.031H25.613a2.039,2.039,0,0,1,1.767,1.031l1.937,3.385a.68.68,0,0,0,.591.342h7.477a2.039,2.039,0,0,1,2.039,2.039V46.284Z" transform="translate(0 -23.988)" fill="#fff"/>
  <path id="Path_287" data-name="Path 287" d="M72.68,119.988a.68.68,0,0,0-.68.68v16.314a.68.68,0,1,0,1.36,0V120.668A.68.68,0,0,0,72.68,119.988Z" transform="translate(-65.882 -111.831)" fill="#fff"/>
  <path id="Path_288" data-name="Path 288" d="M378.039,111.988a2.039,2.039,0,1,0,2.039,2.039A2.039,2.039,0,0,0,378.039,111.988Zm0,2.719a.68.68,0,1,1,.68-.68A.68.68,0,0,1,378.039,114.707Z" transform="translate(-344.052 -104.511)" fill="#fff"/>
  <path id="Path_289" data-name="Path 289" d="M302.8,277.426v-4.758a.68.68,0,0,0-1.359,0v4.758H296.68a.68.68,0,0,0,0,1.359h4.758v4.758a.68.68,0,1,0,1.359,0v-4.758h4.758a.68.68,0,1,0,0-1.359Z" transform="translate(-270.849 -250.916)" fill="#fff"/>
</svg>
