<svg xmlns="http://www.w3.org/2000/svg" width="34.794" height="40" viewBox="0 0 34.794 40">
  <g id="copy" transform="translate(-32.534 0)">
    <path id="Path_270" data-name="Path 270" d="M66.708,5.429,61.9.62A2.1,2.1,0,0,0,60.4,0H44.86a2.12,2.12,0,0,0-2.118,2.118V6.782h-8.09A2.12,2.12,0,0,0,32.534,8.9v13.58a.8.8,0,0,0,1.6,0V8.9a.518.518,0,0,1,.518-.518h15.2v3.576a2.12,2.12,0,0,0,2.118,2.118H55.52V37.882A.518.518,0,0,1,55,38.4H34.652a.518.518,0,0,1-.518-.518V29.029a.8.8,0,0,0-1.6,0v8.853A2.12,2.12,0,0,0,34.652,40H55a2.12,2.12,0,0,0,2.118-2.118V33.218h8.09A2.12,2.12,0,0,0,67.328,31.1V6.927a2.1,2.1,0,0,0-.62-1.5Zm-2,.265H62.18a.518.518,0,0,1-.518-.518V2.646ZM51.454,11.958V9.428L54.5,12.476h-2.53A.518.518,0,0,1,51.454,11.958ZM65.21,31.618H57.12V13.708a2.1,2.1,0,0,0-.62-1.5L51.691,7.4a2.1,2.1,0,0,0-1.5-.62H44.342V2.118A.518.518,0,0,1,44.86,1.6h15.2V5.177A2.12,2.12,0,0,0,62.18,7.294h3.548V31.1a.519.519,0,0,1-.518.518Z" transform="translate(0 0)" fill="#3548bf"/>
    <path id="Path_271" data-name="Path 271" d="M90.539,194.915h5.483a.794.794,0,0,0,0-1.588H90.539A.794.794,0,0,0,90.539,194.915Z" transform="translate(-52.696 -177.855)" fill="#3548bf"/>
    <path id="Path_272" data-name="Path 272" d="M90.539,236.807h13.691a.794.794,0,0,0,0-1.588H90.539A.794.794,0,0,0,90.539,236.807Z" transform="translate(-52.696 -216.394)" fill="#3548bf"/>
    <path id="Path_273" data-name="Path 273" d="M90.539,281.3h13.691a.794.794,0,0,0,0-1.588H90.539A.794.794,0,0,0,90.539,281.3Z" transform="translate(-52.696 -257.331)" fill="#3548bf"/>
    <path id="Path_274" data-name="Path 274" d="M90.539,324.5h13.691a.794.794,0,0,0,0-1.588H90.539A.794.794,0,0,0,90.539,324.5Z" transform="translate(-52.696 -297.068)" fill="#3548bf"/>
    <path id="Path_275" data-name="Path 275" d="M90.539,367.693h13.691a.794.794,0,0,0,0-1.588H90.539A.794.794,0,0,0,90.539,367.693Z" transform="translate(-52.696 -336.806)" fill="#3548bf"/>
    <path id="Path_276" data-name="Path 276" d="M33.406,313.381a.794.794,0,1,0-.547-1.368.8.8,0,0,0,.547,1.368Z" transform="translate(-0.079 -286.846)" fill="#3548bf"/>
  </g>
</svg>
