<svg id="close-btn" xmlns="http://www.w3.org/2000/svg" width="82.017" height="80.068" viewBox="0 0 82.017 80.068">
  <rect id="Rectangle_10" data-name="Rectangle 10" width="80.017" height="80.068" rx="40.008" fill="#fff"/>
  <g id="menu" transform="translate(35 20)">
    <g id="Group_289" data-name="Group 289">
      <g id="Group_288" data-name="Group 288">
        <path id="Path_236" data-name="Path 236" d="M197.008,192a5.008,5.008,0,1,0,5.008,5.008A5.014,5.014,0,0,0,197.008,192Zm0,8.348a3.339,3.339,0,1,1,3.339-3.339A3.343,3.343,0,0,1,197.008,200.348Z" transform="translate(-192 -176.975)" fill="#3548bf"/>
        <path id="Path_237" data-name="Path 237" d="M197.008,384a5.008,5.008,0,1,0,5.008,5.008A5.014,5.014,0,0,0,197.008,384Zm0,8.348a3.339,3.339,0,1,1,3.339-3.339A3.343,3.343,0,0,1,197.008,392.348Z" transform="translate(-192 -353.949)" fill="#3548bf"/>
        <path id="Path_238" data-name="Path 238" d="M197.008,10.017A5.008,5.008,0,1,0,192,5.008,5.014,5.014,0,0,0,197.008,10.017Zm0-8.347a3.339,3.339,0,1,1-3.339,3.339A3.343,3.343,0,0,1,197.008,1.669Z" transform="translate(-192)" fill="#3548bf"/>
      </g>
    </g>
  </g>
</svg>
