<svg id="Component_2" data-name="Component 2" xmlns="http://www.w3.org/2000/svg" width="80.088" height="80" viewBox="0 0 80.088 80">
  <rect id="Rectangle_10" data-name="Rectangle 10" width="80" height="80" rx="40" fill="#fff"/>
  <g id="fork" transform="translate(20 20)">
    <path id="Path_21" data-name="Path 21" d="M81.57,21.987l2.355-.149h.013a5.546,5.546,0,0,0,4.134-2.413l1.862-2.732A11.023,11.023,0,0,0,91.7,8.6a2.487,2.487,0,0,0-2.334-2.069A11.021,11.021,0,0,0,81.55,9.26l-2.489,2.176a5.546,5.546,0,0,0-1.9,4.393s0,.008,0,.013L77.3,18.2a3.316,3.316,0,0,1-.922,2.485L56.928,40.659a2.825,2.825,0,0,0-.757,2.1,3.248,3.248,0,0,0,3.292,3.158q.129,0,.258-.01A2.826,2.826,0,0,0,61.716,44.9L79.212,23.2a3.317,3.317,0,0,1,2.357-1.215Zm-3.292.459L60.783,44.139a1.636,1.636,0,0,1-1.157.566,2.052,2.052,0,0,1-2.253-2,1.633,1.633,0,0,1,.42-1.214L77.236,21.519A4.522,4.522,0,0,0,78.5,18.13l-.134-2.35a4.35,4.35,0,0,1,1.49-3.439l2.489-2.176a9.832,9.832,0,0,1,6.97-2.429A1.286,1.286,0,0,1,90.516,8.8a9.827,9.827,0,0,1-1.576,7.21l-1.862,2.732a4.35,4.35,0,0,1-3.236,1.892l-2.349.149a4.524,4.524,0,0,0-3.215,1.658Zm0,0" transform="translate(-51.771 -6.051)" fill="#3548bf"/>
    <path id="Path_22" data-name="Path 22" d="M305.985,298.932l-13.038-11.875a.6.6,0,1,0-.809.888l13.035,11.872a1.636,1.636,0,0,1,.5,1.189,2.053,2.053,0,0,1-2.13,2.13,1.634,1.634,0,0,1-1.186-.492l-11.618-12.755a.6.6,0,1,0-.888.809l11.621,12.758a2.826,2.826,0,0,0,2.048.881h.063a3.253,3.253,0,0,0,3.292-3.355,2.828,2.828,0,0,0-.884-2.051Zm0,0" transform="translate(-267.007 -264.476)" fill="#3548bf"/>
    <path id="Path_23" data-name="Path 23" d="M7.251,16.322a5.565,5.565,0,0,0,3.639,1.471H10.9l2.36.007a3.315,3.315,0,0,1,2.425,1.07l1.04,1.141a.6.6,0,1,0,.888-.809l-1.041-1.143A4.522,4.522,0,0,0,13.266,16.6l-2.353-.007a4.366,4.366,0,0,1-2.82-1.128L1.254,7.333a.208.208,0,0,1,.306-.28l6.225,6.225a1.58,1.58,0,0,0,2.232,0l.732-.731h0l1.3-1.3h0l.731-.731a1.58,1.58,0,0,0,0-2.232L6.554,2.058a.208.208,0,0,1,.28-.306l8.13,6.839a4.364,4.364,0,0,1,1.129,2.82l.007,2.354a4.526,4.526,0,0,0,1.462,3.309l1.114,1.014a.6.6,0,1,0,.809-.888l-1.112-1.013A3.317,3.317,0,0,1,17.3,13.761l-.007-2.36s0-.009,0-.013A5.565,5.565,0,0,0,15.823,7.75a.6.6,0,0,0-.055-.053L7.607.833A1.409,1.409,0,0,0,5.7,2.907l6.225,6.225a.377.377,0,0,1,0,.532l-.307.306L4.684,3.034a.6.6,0,1,0-.85.85l6.938,6.938-.45.449L3.385,4.333a.6.6,0,0,0-.85.85l6.938,6.938-.306.307a.377.377,0,0,1-.532,0L2.409,6.2a1.409,1.409,0,0,0-2.075,1.9L7.2,16.267a.559.559,0,0,0,.053.055Zm0,0" transform="translate(0 -0.499)" fill="#3548bf"/>
  </g>
</svg>
