<svg xmlns="http://www.w3.org/2000/svg" width="130.062" height="127.034" viewBox="0 0 130.062 127.034">
  <g id="Page-1" transform="translate(0 -0.397)">
    <g id="_017---Headset" data-name="017---Headset" transform="translate(0 0.397)">
      <path id="Shape" d="M121.391,51.561h-2.168a6.5,6.5,0,0,0-4.574-6.178,49.857,49.857,0,0,0-99.237,0,6.5,6.5,0,0,0-4.574,6.178H8.671A8.671,8.671,0,0,0,0,60.232V77.574a8.671,8.671,0,0,0,8.671,8.671h2.168a6.5,6.5,0,0,0,6.5,6.5h2.168v8.671a19.509,19.509,0,0,0,19.509,19.509h6.807a8.671,8.671,0,0,0,8.367,6.5H75.869a8.671,8.671,0,1,0,0-17.342H54.192a8.671,8.671,0,0,0-8.367,6.5H39.018a15.174,15.174,0,0,1-15.174-15.174V92.747h2.168a6.5,6.5,0,0,0,6.5-6.5V51.561a6.5,6.5,0,0,0-4.075-6.026,36.851,36.851,0,0,1,73.181,0,6.5,6.5,0,0,0-4.075,6.026V86.244a6.5,6.5,0,0,0,6.5,6.5h8.671a6.5,6.5,0,0,0,6.5-6.5h2.168a8.671,8.671,0,0,0,8.671-8.671V60.232a8.671,8.671,0,0,0-8.671-8.671Zm-67.2,62.863H75.869a4.335,4.335,0,1,1,0,8.671H54.192a4.335,4.335,0,1,1,0-8.671ZM8.671,81.909a4.335,4.335,0,0,1-4.335-4.335V60.232A4.335,4.335,0,0,1,8.671,55.9h2.168V81.909ZM28.18,86.244a2.168,2.168,0,0,1-2.168,2.168H17.342a2.168,2.168,0,0,1-2.168-2.168V51.561a2.168,2.168,0,0,1,2.168-2.168h8.671a2.168,2.168,0,0,1,2.168,2.168ZM65.031,8.207a41.186,41.186,0,0,0-40.9,36.851H19.791a45.522,45.522,0,0,1,90.479,0h-4.335A41.186,41.186,0,0,0,65.031,8.207Zm49.857,78.037a2.168,2.168,0,0,1-2.168,2.168h-8.671a2.168,2.168,0,0,1-2.168-2.168V51.561a2.168,2.168,0,0,1,2.168-2.168h8.671a2.168,2.168,0,0,1,2.168,2.168Zm10.838-8.671a4.335,4.335,0,0,1-4.335,4.335h-2.168V55.9h2.168a4.335,4.335,0,0,1,4.335,4.335Z" transform="translate(0 -0.397)" fill="#3548bf"/>
    </g>
  </g>
</svg>
