<svg xmlns="http://www.w3.org/2000/svg" width="121.994" height="130.105" viewBox="0 0 121.994 130.105">
  <g id="XMLID_1609_" transform="translate(-15.961 0)">
    <g id="XMLID_564_" transform="translate(15.961 0)">
      <path id="XMLID_621_" d="M136.839,68.94,123.254,45.41l1.1-.637a10.236,10.236,0,1,0-10.236-17.729l-1.1.637L99.434,4.151a8.3,8.3,0,0,0-15.172,6.4L71.253,25.189a2.541,2.541,0,0,0,3.8,3.376L86.763,15.389l34.025,58.933-56.862,12.2-15.9-27.543L59.86,45.658a2.541,2.541,0,0,0-3.8-3.376L43.279,56.663,22.022,68.936a12.113,12.113,0,0,0-4.434,16.546l8.172,14.155a12.119,12.119,0,0,0,16.546,4.434l6.041-3.487L74.864,127.1a10.284,10.284,0,0,0,14.543-14.545l-9.188-9.187,2.506-1.447A6.883,6.883,0,0,0,83.948,90.9l-3.057-2.819,42.83-9.188a8.243,8.243,0,0,0,3.787,2.212,8.337,8.337,0,0,0,2.16.286,8.3,8.3,0,0,0,7.171-12.448Zm-21.28-36.858,1.1-.637a5.154,5.154,0,1,1,5.154,8.927l-1.1.637-5.069-8.78ZM39.766,99.67a7.039,7.039,0,0,1-9.6-2.573L21.99,82.942a7.031,7.031,0,0,1,2.573-9.6L43.976,62.13l15.2,26.332ZM87.292,120.5a5.2,5.2,0,0,1-8.835,3L52.9,97.953l9.328-5.385,23.581,23.579a5.165,5.165,0,0,1,1.479,4.357ZM80.5,94.633a1.8,1.8,0,0,1-.32,2.883L76.5,99.644,67.749,90.9l7.059-1.514ZM132.759,73.92a3.214,3.214,0,0,1-5.887.775L89.465,9.905a3.216,3.216,0,0,1,2.779-4.821,3.228,3.228,0,0,1,.837.111,3.192,3.192,0,0,1,1.951,1.5l37.406,64.789A3.191,3.191,0,0,1,132.759,73.92Z" transform="translate(-15.961 0)" fill="#3548bf"/>
      <path id="XMLID_1039_" d="M203.671,134.482a2.542,2.542,0,1,0-1.8-.745A2.56,2.56,0,0,0,203.671,134.482Z" transform="translate(-154.076 -96.518)" fill="#3548bf"/>
    </g>
  </g>
</svg>
