<svg id="XMLID_564_" xmlns="http://www.w3.org/2000/svg" width="121.895" height="130" viewBox="0 0 121.895 130">
  <path id="XMLID_621_" d="M136.741,68.884,123.167,45.374l1.1-.636a10.228,10.228,0,1,0-10.227-17.715l-1.1.636L99.366,4.148a8.291,8.291,0,0,0-15.16,6.4l-13,14.625A2.539,2.539,0,0,0,75,28.542l11.7-13.166,34,58.885L63.887,86.449,48,58.928,59.825,45.621a2.539,2.539,0,0,0-3.8-3.374L43.257,56.618,22.017,68.88a12.1,12.1,0,0,0-4.43,16.533l8.166,14.143a12.109,12.109,0,0,0,16.533,4.43l6.036-3.485,26.494,26.492a10.276,10.276,0,0,0,14.531-14.533l-9.181-9.18,2.5-1.446a6.878,6.878,0,0,0,1.223-11.013l-3.055-2.816,42.8-9.181a8.237,8.237,0,0,0,3.784,2.21,8.33,8.33,0,0,0,2.159.286,8.292,8.292,0,0,0,7.165-12.437ZM115.479,32.056l1.1-.636a5.15,5.15,0,1,1,5.15,8.92l-1.1.636L115.564,32.2ZM39.747,99.589a7.034,7.034,0,0,1-9.6-2.571L21.985,82.875a7.025,7.025,0,0,1,2.571-9.6l19.4-11.2L59.144,88.39Zm47.488,20.817a5.2,5.2,0,0,1-8.828,3L52.875,97.873l9.32-5.381,23.562,23.56a5.161,5.161,0,0,1,1.478,4.354ZM80.451,94.557a1.8,1.8,0,0,1-.32,2.881l-3.682,2.126-8.742-8.741,7.054-1.513Zm52.213-20.7a3.211,3.211,0,0,1-5.883.774L89.406,9.9A3.213,3.213,0,0,1,92.182,5.08a3.226,3.226,0,0,1,.836.111,3.189,3.189,0,0,1,1.95,1.5l37.376,64.737A3.189,3.189,0,0,1,132.664,73.86Z" transform="translate(-15.961 0)" fill="#252525"/>
  <path id="XMLID_1039_" d="M203.676,134.493a2.547,2.547,0,1,0-1.8-.746A2.565,2.565,0,0,0,203.676,134.493Z" transform="translate(-154.12 -96.548)" fill="#252525"/>
</svg>
