<svg id="right" xmlns="http://www.w3.org/2000/svg" width="114" height="114" viewBox="0 0 114 114">
  <g id="Group_400" data-name="Group 400">
    <g id="Group_399" data-name="Group 399">
      <path id="Path_277" data-name="Path 277" d="M97.305,16.695a57,57,0,0,0-80.61,80.61,57,57,0,1,0,80.61-80.61ZM57,107.32A50.32,50.32,0,1,1,107.32,57,50.377,50.377,0,0,1,57,107.32Z" fill="#252525"/>
    </g>
  </g>
  <g id="Group_402" data-name="Group 402" transform="translate(28.79 37.733)">
    <g id="Group_401" data-name="Group 401">
      <path id="Path_278" data-name="Path 278" d="M184.743,170.445a3.34,3.34,0,0,0-4.723,0l-29.493,29.493L135,184.413a3.34,3.34,0,0,0-4.723,4.723l17.887,17.887a3.34,3.34,0,0,0,4.723,0l31.855-31.855A3.34,3.34,0,0,0,184.743,170.445Z" transform="translate(-129.301 -169.467)" fill="#252525"/>
    </g>
  </g>
</svg>
