<?xml version="1.0" encoding="utf-8"?>
<!-- Generator: Adobe Illustrator 23.0.6, SVG Export Plug-In . SVG Version: 6.00 Build 0)  -->
<svg version="1.1" id="Capa_1" xmlns="http://www.w3.org/2000/svg" xmlns:xlink="http://www.w3.org/1999/xlink" x="0px" y="0px"
	 viewBox="0 0 512 512" style="enable-background:new 0 0 512 512;" xml:space="preserve">
<style type="text/css">
	.st0{fill:#353535;}
	.st1{fill:#ECEFF1;}
</style>
<rect class="st0" width="512" height="512"/>
<path class="st1" d="M429.7,441.7c-10.4-9.3-23.1-16-36.9-19.3l-65.7-14.9c-6.9-1.5-11.9-26.7-11.9-34.8v-17
	c4.2-6.7,8.2-15.6,12.4-24.9c3.3-7.2,8.2-18.1,10.5-20.8c13.3-15.1,26.2-32.1,30.2-53.9c3.7-20.5,0.1-31.3-4.2-39.9
	c0-21.6-0.6-48.7-5.1-68.4c-0.5-26.7-4.8-41.7-15.6-54.8c-7.6-9.3-18.8-11.5-27.9-13.2c-3.6-0.7-8.4-1.6-10.2-2.7
	c-15.9-9.8-31.7-14.6-50.5-14.9c-39.4,1.8-88,30.2-104.2,80.8c-5,15.4-4.5,40.7-4.1,61l-0.4,12.2c-3.9,8.5-7.6,19.3-3.9,39.9
	c3.9,21.9,16.8,38.9,30.4,54.2c2.2,2.6,7.2,13.6,10.5,20.8c4.2,9.3,8.2,18.2,12.4,24.8v17c0,8.1-5,33.3-11.9,34.8l-65.7,14.9
	c-13.7,3.3-26.4,9.9-36.8,19.3c-3.3,2.9-16.3,69.4-16.6,74c-0.4,4.6,1,9.2,3.9,12.7c44.6,55.8,119.8,87.8,187.1,87.8
	s143.4-32,188.1-87.8c2.8-3.5,4.2-8.1,3.9-12.7C447,511.1,433,444.7,429.7,441.7z"/>
</svg>
